<svg width="34" height="28" viewBox="0 0 34 28" fill="none" xmlns="http://www.w3.org/2000/svg">
<path fill-rule="evenodd" clip-rule="evenodd" d="M30.9303 1.81104C31.892 1.81104 32.6716 2.59065 32.6716 3.55233C32.6716 4.51401 31.892 5.29362 30.9303 5.29362H3.06964C2.10792 5.29362 1.32835 4.51401 1.32835 3.55233C1.32835 2.59065 2.10792 1.81104 3.06964 1.81104H30.9303ZM25.7065 14.0001C25.7065 13.0384 24.9268 12.2588 23.9652 12.2588H3.06964C2.10792 12.2588 1.32835 13.0384 1.32835 14.0001C1.32835 14.9618 2.10792 15.7414 3.06964 15.7414H23.9652C24.9268 15.7414 25.7065 14.9618 25.7065 14.0001ZM15.2587 24.4479C15.2587 23.4861 14.4791 22.7066 13.5174 22.7066H3.06964C2.10792 22.7066 1.32835 23.4861 1.32835 24.4479C1.32835 25.4096 2.10792 26.1891 3.06964 26.1891H13.5174C14.4791 26.1891 15.2587 25.4096 15.2587 24.4479Z" fill="white" stroke="white" stroke-width="1.99005"/>
</svg>
