<svg width="45" height="25" viewBox="0 0 45 25" fill="none" xmlns="http://www.w3.org/2000/svg">
<path d="M42.9545 10.4546L6.98359 10.4546L13.7191 3.71901C14.518 2.92033 14.518 1.62514 13.7191 0.826326C13.3197 0.427053 12.7962 0.22728 12.2727 0.22728C11.7492 0.22728 11.2257 0.427053 10.8265 0.826462L0.599182 11.0537C-0.199635 11.8524 -0.199635 13.1476 0.599182 13.9464L10.8265 24.1737C11.6251 24.9724 12.9203 24.9724 13.7191 24.1737C14.518 23.375 14.518 22.0798 13.7191 21.281L6.98359 14.5455L42.9545 14.5455C44.0842 14.5455 45 13.6296 45 12.5C45 11.3704 44.0842 10.4546 42.9545 10.4546Z" fill="white"/>
</svg>
