<svg width="45" height="44" viewBox="0 0 45 44" fill="currentColor" xmlns="http://www.w3.org/2000/svg">
<path d="M22.7995 0.968262C22.5991 0.968262 22.3995 1.03182 22.229 1.16082L1.03661 17.7012C0.640405 18.0145 0.566766 18.5933 0.880045 18.9987C1.19332 19.3949 1.77215 19.4686 2.17757 19.1553L3.44991 18.1619V42.3849C3.44991 42.8917 3.86454 43.3063 4.37132 43.3063H17.271V26.7209H28.328V43.3063H41.2277C41.7345 43.3063 42.1491 42.8917 42.1491 42.3849V18.1619L43.4214 19.1553C43.5965 19.2843 43.7892 19.3496 43.9919 19.3496C44.2683 19.3496 44.5347 19.2291 44.719 18.9987C45.0322 18.5933 44.9586 18.0145 44.5624 17.7012L23.37 1.16082C23.1995 1.03182 22.9999 0.968262 22.7995 0.968262ZM32.0136 4.60711V5.57531L37.542 9.88722V4.60711H32.0136Z" fill="currentColor"/>
</svg>
