<svg width="50" height="28" viewBox="0 0 50 28" fill="none" xmlns="http://www.w3.org/2000/svg">
<path d="M25 27.6056C19.3774 27.6056 13.3262 25.4067 7.50045 21.2464C3.14542 18.1365 0.457425 15.0555 0.345105 14.9256C-0.115035 14.3943 -0.115035 13.6057 0.345105 13.0743C0.457425 12.9447 3.1453 9.86341 7.50045 6.75351C13.3263 2.59359 19.3775 0.39447 25 0.39447C30.6226 0.39447 36.6739 2.59348 42.4995 6.75351C46.8546 9.86341 49.5426 12.9446 49.6549 13.0743C50.115 13.6056 50.115 14.3942 49.6549 14.9256C49.5426 15.0552 46.8547 18.1365 42.4995 21.2464C36.6739 25.4066 30.6227 27.6056 25 27.6056ZM3.35241 14.0001C4.43942 15.1085 6.49093 17.0576 9.19962 18.9851C12.9131 21.6275 18.6687 24.7778 25 24.7778C31.3313 24.7778 37.087 21.6275 40.8004 18.9851C43.5087 17.0579 45.5604 15.1086 46.6476 14.0001C45.5607 12.8918 43.5091 10.9427 40.8004 9.01518C37.087 6.37266 31.3313 3.22249 25 3.22249C18.6687 3.22249 12.9131 6.37266 9.19962 9.01518C6.49127 10.9424 4.43964 12.8914 3.35241 14.0001Z" fill="white"/>
<path d="M25.0001 22.7663C20.1663 22.7663 16.2339 18.8337 16.2339 14.0001C16.2339 9.16651 20.1663 5.23395 25.0001 5.23395C27.1259 5.23395 29.1766 6.00469 30.7742 7.40434C31.3616 7.91889 31.4206 8.81213 30.9061 9.39952C30.3915 9.98691 29.4982 10.0458 28.9109 9.53141C27.8291 8.58365 26.4401 8.06175 24.9999 8.06175C21.7255 8.06175 19.0616 10.7258 19.0616 14.0001C19.0616 17.2745 21.7255 19.9385 24.9999 19.9385C28.2745 19.9385 30.9383 17.2745 30.9383 14.0001C30.9383 13.2193 31.5714 12.5862 32.3522 12.5862C33.133 12.5862 33.7661 13.2193 33.7661 14.0001C33.7664 18.8337 29.8338 22.7663 25.0001 22.7663Z" fill="white"/>
<path d="M25 16.828C23.4408 16.828 22.1722 15.5594 22.1722 14.0002C22.1722 12.4409 23.4408 11.1724 25 11.1724C26.5594 11.1724 27.8278 12.4409 27.8278 14.0002C27.8278 15.5594 26.5594 16.828 25 16.828Z" fill="white"/>
</svg>
